<?xml version="1.0" encoding="iso-8859-1"?>
<!-- Generator: Adobe Illustrator 18.0.0, SVG Export Plug-In . SVG Version: 6.00 Build 0)  -->
<!DOCTYPE svg PUBLIC "-//W3C//DTD SVG 1.1//EN" "http://www.w3.org/Graphics/SVG/1.1/DTD/svg11.dtd">
<svg version="1.1" id="Capa_1" xmlns="http://www.w3.org/2000/svg" xmlns:xlink="http://www.w3.org/1999/xlink" x="0px" y="0px"
	 viewBox="0 0 408 408" style="enable-background:new 0 0 408 408;" xml:space="preserve">
<g>
	<path d="M400.5,330.5h-133V314c0-4.142-3.357-7.5-7.5-7.5H211.5v-41H293c4.143,0,7.5-3.358,7.5-7.5V103.95
		c0-1.989-0.79-3.896-2.196-5.303l-57.94-57.95c-1.406-1.407-3.314-2.197-5.304-2.197H115c-4.142,0-7.5,3.358-7.5,7.5v212
		c0,4.142,3.358,7.5,7.5,7.5h81.5v41H148c-4.142,0-7.5,3.358-7.5,7.5v16.5H7.5c-4.142,0-7.5,3.358-7.5,7.5s3.358,7.5,7.5,7.5h133
		V362c0,4.142,3.358,7.5,7.5,7.5h112c4.143,0,7.5-3.358,7.5-7.5v-16.5h133c4.143,0,7.5-3.358,7.5-7.5S404.643,330.5,400.5,330.5z
		 M242.56,64.109l32.336,32.341H242.56V64.109z M122.5,53.5h105.06v50.45c0,4.142,3.357,7.5,7.5,7.5h50.44V250.5h-163V53.5z
		 M252.5,354.5h-97v-33h97V354.5z"/>
	<path d="M253,158.5h-98c-4.142,0-7.5,3.358-7.5,7.5s3.358,7.5,7.5,7.5h98c4.143,0,7.5-3.358,7.5-7.5S257.143,158.5,253,158.5z"/>
	<path d="M253,192.5h-98c-4.142,0-7.5,3.358-7.5,7.5s3.358,7.5,7.5,7.5h98c4.143,0,7.5-3.358,7.5-7.5S257.143,192.5,253,192.5z"/>
	<path d="M253,124.5h-98c-4.142,0-7.5,3.358-7.5,7.5s3.358,7.5,7.5,7.5h98c4.143,0,7.5-3.358,7.5-7.5S257.143,124.5,253,124.5z"/>
</g>
<g>
</g>
<g>
</g>
<g>
</g>
<g>
</g>
<g>
</g>
<g>
</g>
<g>
</g>
<g>
</g>
<g>
</g>
<g>
</g>
<g>
</g>
<g>
</g>
<g>
</g>
<g>
</g>
<g>
</g>
</svg>
