<svg xmlns="http://www.w3.org/2000/svg" width="24" height="24" viewBox="0 0 24 24">
  <g fill="#48A2DF" transform="translate(4.86 3)">
    <path d="M7.75376787,14.0097985 C4.84310033,14.0097985 1.79906799,13.3980263 0.0151198473,12.1015963 C0.0151198473,12.1228222 0,12.1424974 0,12.1637233 C0,12.4892847 0,13.6856911 0,14.0097985 C0,15.7119444 3.47097419,17.0916305 7.75376787,17.0916305 C12.0365615,17.0916305 15.5075357,15.7120414 15.5075357,14.0097985 C15.5075357,13.6856911 15.5075357,12.4892847 15.5075357,12.1637233 C15.5075357,12.1424974 15.4924159,12.1228222 15.4924159,12.1015963 C13.7084677,13.3979293 10.6629816,14.0097985 7.75376787,14.0097985 Z" opacity=".566"/>
    <path d="M0,7.62350457 C0,8.01419755 0,9.08489597 0,9.39233286 C0,11.0944788 3.47097419,12.4726141 7.75376787,12.4726141 C12.0365615,12.4726141 15.5075357,11.0944788 15.5075357,9.39233286 C15.5075357,9.08489597 15.5075357,8.01419755 15.5075357,7.62350457 C13.7265922,8.92894831 10.6719953,9.54682669 7.75376787,9.54682669 C4.83554041,9.54682669 1.78094356,8.92894831 0,7.62350457 Z" opacity=".808"/>
    <path d="M7.75376787,0 C3.47097419,0 0,1.37813532 0,3.08028121 C0,3.4043887 0,4.60224892 0,4.92781025 C0,6.62695155 3.47097419,8.00663762 7.75376787,8.00663762 C12.0365615,8.00663762 15.5075357,6.62704847 15.5075357,4.92781025 C15.5075357,4.60224892 15.5075357,3.40429178 15.5075357,3.08028121 C15.5075357,1.37813532 12.0365615,0 7.75376787,0 Z"/>
  </g>
</svg>
