<?xml version="1.0" encoding="utf-8"?>
<!-- Generator: Adobe Illustrator 21.0.2, SVG Export Plug-In . SVG Version: 6.00 Build 0)  -->
<svg version="1.1" id="Layer_1" xmlns="http://www.w3.org/2000/svg" xmlns:xlink="http://www.w3.org/1999/xlink" x="0px" y="0px"
	 viewBox="0 0 50 50" style="enable-background:new 0 0 50 50;" xml:space="preserve">
<style type="text/css">
	.st0{fill:#808285;}
	.st1{fill:#FFFFFF;}
	.st2{fill:#FFFFFF;stroke:#808285;stroke-miterlimit:10;}
</style>
<path class="st0" d="M19.5,45.8L4.2,30.5c-3-3-3-7.9,0-10.9L19.5,4.2c3-3,7.9-3,10.9,0l15.4,15.4c3,3,3,7.9,0,10.9L30.5,45.8
	C27.4,48.8,22.6,48.8,19.5,45.8z"/>
<path class="st1" d="M35.5,34.9H15.8c-1.1,0-2-0.9-2-2V20.2c0-1.1,0.9-2,2-2h19.8c1.1,0,2,0.9,2,2v12.6C37.5,34,36.6,34.9,35.5,34.9
	z"/>
<path class="st1" d="M34.4,15.8h-5.6c-0.6,0-1,0.4-1,1v1.8c0,0.6,0.4,1,1,1h5.6c0.6,0,1-0.4,1-1v-1.8C35.4,16.2,34.9,15.8,34.4,15.8
	z"/>
<polygon class="st2" points="46.1,37.1 40.5,37.1 40.5,31.5 34.5,31.5 34.5,37.1 28.9,37.1 28.9,43.1 34.5,43.1 34.5,48.8 
	40.5,48.8 40.5,43.1 46.1,43.1 "/>
</svg>
