<?xml version="1.0" encoding="UTF-8" standalone="no"?>
<svg
   xmlns:dc="http://purl.org/dc/elements/1.1/"
   xmlns:cc="http://creativecommons.org/ns#"
   xmlns:rdf="http://www.w3.org/1999/02/22-rdf-syntax-ns#"
   xmlns:svg="http://www.w3.org/2000/svg"
   xmlns="http://www.w3.org/2000/svg"
   xml:space="preserve"
   enable-background="new 0 0 547.2 172.8"
   viewBox="0 0 485.7181 105.42712"
   height="105.42712"
   width="485.71811"
   y="0px"
   x="0px"
   id="Layer_1"
   version="1.1"><metadata
     id="metadata61"><rdf:RDF><cc:Work
         rdf:about=""><dc:format>image/svg+xml</dc:format><dc:type
           rdf:resource="http://purl.org/dc/dcmitype/StillImage" /><dc:title></dc:title></cc:Work></rdf:RDF></metadata><defs
     id="defs59" /><g
     transform="translate(-27.760894,-33.686669)"
     id="g4189"><g
       id="g3"><g
         id="g5"><path
           style="fill:#ffffff"
           d="m 170.64,101.102 c 0,-14.975 11.282,-25.2 25.626,-25.2 8.814,0 14.942,4.091 18.904,9.642 l -5.157,2.849 c -2.839,-4.163 -8.069,-7.085 -13.747,-7.085 -10.91,0 -19.199,8.104 -19.199,19.795 0,11.541 8.29,19.795 19.199,19.795 5.678,0 10.908,-2.995 13.747,-7.085 l 5.23,2.775 c -4.184,5.624 -10.163,9.715 -18.977,9.715 -14.344,-10e-4 -25.626,-10.228 -25.626,-25.201"
           id="path7" /><path
           style="fill:#ffffff"
           d="m 221.145,101.102 c 0,-14.391 10.009,-25.2 24.73,-25.2 14.717,0 24.807,10.81 24.807,25.2 0,14.39 -10.09,25.2 -24.807,25.2 -14.722,0 -24.73,-10.811 -24.73,-25.2 m 43.11,0 c 0,-11.396 -7.247,-19.795 -18.38,-19.795 -11.209,0 -18.307,8.399 -18.307,19.795 0,11.321 7.098,19.795 18.307,19.795 11.133,-0.001 18.38,-8.474 18.38,-19.795"
           id="path9" /><polygon
           style="fill:#ffffff"
           points="280.314,126.301 280.314,75.901 286.668,75.901 315.357,115.269 315.357,75.901 321.559,75.901 321.559,126.301 315.58,126.301 286.519,86.102 286.519,126.301 "
           id="polygon11" /><polygon
           style="fill:#ffffff"
           points="333.206,126.301 333.206,75.901 339.561,75.901 368.25,115.269 368.25,75.901 374.449,75.901 374.449,126.301 368.472,126.301 339.411,86.102 339.411,126.301 "
           id="polygon13" /><polygon
           style="fill:#ffffff"
           points="418.753,81.493 392.304,81.493 392.304,97.738 418.227,97.738 418.227,103.33 392.304,103.33 392.304,120.71 418.753,120.71 418.753,126.301 386.103,126.301 386.103,75.901 418.753,75.901 "
           id="polygon15" /><path
           style="fill:#ffffff"
           d="m 426.593,101.102 c 0,-14.975 11.281,-25.2 25.626,-25.2 8.813,0 14.942,4.091 18.902,9.642 l -5.159,2.849 c -2.835,-4.163 -8.065,-7.085 -13.743,-7.085 -10.911,0 -19.201,8.104 -19.201,19.795 0,11.541 8.29,19.795 19.201,19.795 5.678,0 10.908,-2.995 13.743,-7.085 l 5.233,2.775 c -4.184,5.624 -10.164,9.715 -18.977,9.715 -14.344,-10e-4 -25.625,-10.228 -25.625,-25.201"
           id="path17" /><polygon
           style="fill:#ffffff"
           points="475.675,75.901 513.479,75.901 513.479,81.493 497.64,81.493 497.64,126.301 491.438,126.301 491.438,81.493 475.675,81.493 "
           id="polygon19" /></g><g
         id="g21"><path
           style="fill:#ffffff"
           d="m 173.898,68.099 0,-21.6 9.285,0 c 3.627,0 5.847,2.266 5.847,5.505 0,2.721 -1.751,4.535 -3.658,4.956 2.219,0.355 4.064,2.72 4.064,5.31 0,3.466 -2.22,5.83 -6.035,5.83 l -9.503,0 z m 12.444,-15.707 c 0,-1.942 -1.251,-3.497 -3.596,-3.497 l -6.252,0 0,6.964 6.252,0 c 2.344,-0.001 3.596,-1.489 3.596,-3.467 m 0.406,9.585 c 0,-1.974 -1.313,-3.722 -3.845,-3.722 l -6.409,0 0,7.447 6.409,0 c 2.406,0 3.845,-1.427 3.845,-3.725"
           id="path23" /><path
           style="fill:#ffffff"
           d="m 192.722,57.299 c 0,-6.167 4.188,-10.8 10.349,-10.8 6.159,0 10.379,4.634 10.379,10.8 0,6.167 -4.221,10.8 -10.379,10.8 -6.161,0 -10.349,-4.633 -10.349,-10.8 m 18.038,0 c 0,-4.883 -3.031,-8.483 -7.689,-8.483 -4.689,0 -7.66,3.601 -7.66,8.483 0,4.851 2.971,8.482 7.66,8.482 4.658,0 7.689,-3.632 7.689,-8.482"
           id="path25" /><path
           style="fill:#ffffff"
           d="m 217.486,59.479 0,-12.98 2.627,0 0,12.917 c 0,3.879 2.032,6.329 5.877,6.329 3.845,0 5.909,-2.45 5.909,-6.329 l 0,-12.917 2.625,0 0,12.949 c 0,5.278 -2.875,8.651 -8.535,8.651 -5.627,0 -8.503,-3.405 -8.503,-8.62"
           id="path27" /><polygon
           style="fill:#ffffff"
           points="239.403,68.099 239.403,46.499 242.062,46.499 254.069,63.37 254.069,46.499 256.664,46.499 256.664,68.099 254.162,68.099 242.001,50.87 242.001,68.099 "
           id="polygon29" /><path
           style="fill:#ffffff"
           d="m 261.545,68.099 0,-21.6 7.128,0 c 6.501,0 10.69,4.696 10.69,10.816 0,6.152 -4.189,10.784 -10.69,10.784 l -7.128,0 z m 15.13,-10.785 c 0,-4.663 -2.846,-8.419 -8.002,-8.419 l -4.534,0 0,16.807 4.534,0 c 5.063,0 8.002,-3.758 8.002,-8.388"
           id="path31" /><polygon
           style="fill:#ffffff"
           points="285.683,65.701 295.376,65.701 295.376,68.099 283.089,68.099 283.089,46.499 285.683,46.499 "
           id="polygon33" /><polygon
           style="fill:#ffffff"
           points="312.509,48.895 301.442,48.895 301.442,55.858 312.291,55.858 312.291,58.255 301.442,58.255 301.442,65.701 312.509,65.701 312.509,68.099 298.848,68.099 298.848,46.499 312.509,46.499 "
           id="polygon35" /><path
           style="fill:#ffffff"
           d="m 315.389,64.779 1.563,-2.002 c 1.344,1.563 3.595,3.004 6.534,3.004 3.719,0 4.907,-2.004 4.907,-3.632 0,-5.383 -12.347,-2.379 -12.347,-9.828 0,-3.442 3.064,-5.823 7.188,-5.823 3.159,0 5.628,1.097 7.38,2.942 l -1.563,1.912 c -1.563,-1.753 -3.751,-2.506 -6.033,-2.506 -2.471,0 -4.283,1.347 -4.283,3.319 0,4.696 12.349,2.003 12.349,9.796 0,3.007 -2.063,6.137 -7.691,6.137 -3.597,0.001 -6.286,-1.376 -8.004,-3.319"
           id="path37" /><path
           style="fill:#ffffff"
           d="m 333.712,64.779 1.563,-2.002 c 1.344,1.563 3.595,3.004 6.534,3.004 3.72,0 4.907,-2.004 4.907,-3.632 0,-5.383 -12.348,-2.379 -12.348,-9.828 0,-3.442 3.063,-5.823 7.189,-5.823 3.157,0 5.627,1.097 7.379,2.942 l -1.563,1.912 c -1.563,-1.753 -3.752,-2.506 -6.034,-2.506 -2.471,0 -4.284,1.347 -4.284,3.319 0,4.696 12.35,2.003 12.35,9.796 0,3.007 -2.063,6.137 -7.691,6.137 -3.595,0.001 -6.282,-1.376 -8.002,-3.319"
           id="path39" /></g></g><g
       id="g41"><path
         style="clip-rule:evenodd;fill:#2a738e;fill-rule:evenodd"
         d="m 106.771,76.134 c 5.668,14.518 -1.499,30.89 -16.025,36.557 -14.521,5.675 -30.889,-1.499 -36.565,-16.024 -5.664,-14.522 1.501,-30.891 16.023,-36.559 14.52,-5.672 30.894,1.5 36.567,16.026"
         id="path43" /><path
         style="clip-rule:evenodd;fill:#01a78d;fill-rule:evenodd"
         d="m 129.084,106.755 -0.34,0.803 c -5.417,12.351 -15.542,22.643 -29.094,27.933 -13.144,5.13 -27.104,4.625 -39.194,-0.335 1.863,-1.764 3.332,-3.869 4.339,-6.169 0.256,-0.581 0.48,-1.187 0.683,-1.799 9.613,3.542 20.513,3.713 30.803,-0.311 10.798,-4.216 18.958,-12.27 23.518,-21.984 l 0.108,0.051 0.016,0.003 c 2.862,1.246 5.983,1.888 9.161,1.808"
         id="path45" /><path
         style="clip-rule:evenodd;fill:#bcd74b;fill-rule:evenodd"
         d="m 33.006,109.291 c -0.584,-1.207 -1.126,-2.454 -1.617,-3.724 -5.295,-13.549 -4.599,-27.972 0.817,-40.326 1.72,-3.903 3.907,-7.606 6.523,-11.018 1.458,2.954 3.802,5.238 6.578,6.638 -1.833,2.524 -3.386,5.239 -4.639,8.09 -4.461,10.182 -5.038,22.076 -0.675,33.257 0.215,0.535 0.432,1.064 0.658,1.592 l -0.027,0.007 c -3.066,1.199 -5.65,3.118 -7.618,5.484"
         id="path47" /><path
         style="clip-rule:evenodd;fill:#f68e51;fill-rule:evenodd"
         d="m 62.291,36.936 c 13.263,-4.883 27.293,-4.084 39.341,1.2 11.262,4.934 20.808,13.789 26.413,25.576 -2.441,0.063 -4.912,0.533 -7.32,1.475 -0.64,0.248 -1.261,0.529 -1.863,0.832 C 114.153,57.128 106.663,50.43 97.925,46.6 88.34,42.401 77.239,41.644 66.653,45.208 c -0.165,-1 -0.44,-1.992 -0.818,-2.965 -0.811,-2.072 -2.037,-3.861 -3.544,-5.307"
         id="path49" /><path
         style="clip-rule:evenodd;fill:#f68e51;fill-rule:evenodd"
         d="m 60.212,44.436 c 1.771,4.526 -0.471,9.633 -4.999,11.401 -4.525,1.763 -9.631,-0.47 -11.399,-4.998 -1.766,-4.531 0.473,-9.636 4.993,-11.402 4.533,-1.767 9.639,0.47 11.405,4.999"
         id="path51" /><path
         style="clip-rule:evenodd;fill:#01a78d;fill-rule:evenodd"
         d="m 142.939,79.624 c 3.099,7.938 -0.821,16.893 -8.771,19.995 -7.938,3.103 -16.892,-0.818 -20.002,-8.765 -3.1,-7.944 0.829,-16.896 8.773,-19.998 7.944,-3.104 16.894,0.817 20,8.768"
         id="path53" /><path
         style="clip-rule:evenodd;fill:#bcd74b;fill-rule:evenodd"
         d="m 59.354,116.771 c 2.555,6.543 -0.675,13.926 -7.223,16.488 -6.553,2.552 -13.933,-0.681 -16.49,-7.23 -2.554,-6.546 0.681,-13.926 7.231,-16.481 6.545,-2.558 13.922,0.68 16.482,7.223"
         id="path55" /></g></g></svg>