<?xml version="1.0" encoding="UTF-8" standalone="no"?>
<svg
   xmlns:dc="http://purl.org/dc/elements/1.1/"
   xmlns:cc="http://creativecommons.org/ns#"
   xmlns:rdf="http://www.w3.org/1999/02/22-rdf-syntax-ns#"
   xmlns:svg="http://www.w3.org/2000/svg"
   xmlns="http://www.w3.org/2000/svg"
   xml:space="preserve"
   enable-background="new 0 0 520.333 172.8"
   viewBox="0 0 458.03698 136.6"
   height="136.60001"
   width="458.03699"
   y="0px"
   x="0px"
   id="Layer_1"
   version="1.1"><metadata
     id="metadata59"><rdf:RDF><cc:Work
         rdf:about=""><dc:format>image/svg+xml</dc:format><dc:type
           rdf:resource="http://purl.org/dc/dcmitype/StillImage" /><dc:title></dc:title></cc:Work></rdf:RDF></metadata><defs
     id="defs57" /><g
     transform="translate(-28.801,-18.1)"
     id="g3"><g
       id="g5"><path
         style="fill:#ffffff"
         id="path7"
         d="m 172.8,68.4 0,-21.6 9.284,0 c 3.626,0 5.846,2.266 5.846,5.504 0,2.721 -1.75,4.535 -3.657,4.956 2.219,0.355 4.064,2.721 4.064,5.312 0,3.466 -2.22,5.829 -6.034,5.829 l -9.503,0 z m 12.442,-15.708 c 0,-1.942 -1.252,-3.497 -3.596,-3.497 l -6.251,0 0,6.962 6.251,0 c 2.344,0.001 3.596,-1.488 3.596,-3.465 m 0.405,9.587 c 0,-1.976 -1.313,-3.725 -3.844,-3.725 l -6.408,0 0,7.45 6.408,0 c 2.406,0 3.844,-1.426 3.844,-3.725" /><path
         style="fill:#ffffff"
         id="path9"
         d="m 191.621,57.599 c 0,-6.166 4.188,-10.799 10.348,-10.799 6.158,0 10.378,4.633 10.378,10.799 0,6.168 -4.22,10.801 -10.378,10.801 -6.159,0 -10.348,-4.633 -10.348,-10.801 m 18.037,0 c 0,-4.883 -3.031,-8.482 -7.689,-8.482 -4.688,0 -7.659,3.6 -7.659,8.482 0,4.853 2.971,8.484 7.659,8.484 4.658,0 7.689,-3.631 7.689,-8.484" /><path
         style="fill:#ffffff"
         id="path11"
         d="m 216.383,59.779 0,-12.979 2.626,0 0,12.916 c 0,3.881 2.032,6.33 5.876,6.33 3.844,0 5.909,-2.449 5.909,-6.33 l 0,-12.916 2.625,0 0,12.948 c 0,5.279 -2.874,8.652 -8.534,8.652 -5.627,0 -8.502,-3.403 -8.502,-8.621" /><polygon
         style="fill:#ffffff"
         id="polygon13"
         points="238.298,68.4 238.298,46.8 240.956,46.8 252.962,63.672 252.962,46.8 255.557,46.8 255.557,68.4 253.056,68.4 240.896,51.17 240.896,68.4 " /><path
         style="fill:#ffffff"
         id="path15"
         d="m 260.437,68.4 0,-21.6 7.128,0 c 6.501,0 10.689,4.695 10.689,10.815 0,6.154 -4.188,10.785 -10.689,10.785 l -7.128,0 z m 15.128,-10.785 c 0,-4.662 -2.845,-8.418 -8.001,-8.418 l -4.534,0 0,16.808 4.534,0 c 5.064,-10e-4 8.001,-3.758 8.001,-8.39" /><polygon
         style="fill:#ffffff"
         id="polygon17"
         points="284.572,66.002 294.265,66.002 294.265,68.4 281.979,68.4 281.979,46.8 284.572,46.8 " /><polygon
         style="fill:#ffffff"
         id="polygon19"
         points="311.396,49.195 300.331,49.195 300.331,56.158 311.178,56.158 311.178,58.554 300.331,58.554 300.331,66.002 311.396,66.002 311.396,68.4 297.736,68.4 297.736,46.8 311.396,46.8 " /><path
         style="fill:#ffffff"
         id="path21"
         d="m 314.275,65.082 1.563,-2.003 c 1.344,1.563 3.595,3.005 6.534,3.005 3.718,0 4.906,-2.004 4.906,-3.633 0,-5.384 -12.346,-2.379 -12.346,-9.829 0,-3.441 3.064,-5.822 7.188,-5.822 3.158,0 5.627,1.096 7.378,2.942 l -1.563,1.912 c -1.563,-1.753 -3.751,-2.505 -6.032,-2.505 -2.471,0 -4.283,1.347 -4.283,3.319 0,4.696 12.348,2.003 12.348,9.797 0,3.006 -2.063,6.136 -7.691,6.136 -3.594,-10e-4 -6.283,-1.378 -8.002,-3.319" /><path
         style="fill:#ffffff"
         id="path23"
         d="m 332.597,65.082 1.563,-2.003 c 1.344,1.563 3.595,3.005 6.534,3.005 3.719,0 4.906,-2.004 4.906,-3.633 0,-5.384 -12.346,-2.379 -12.346,-9.829 0,-3.441 3.063,-5.822 7.188,-5.822 3.157,0 5.627,1.096 7.379,2.942 l -1.563,1.912 c -1.563,-1.753 -3.751,-2.505 -6.032,-2.505 -2.471,0 -4.284,1.347 -4.284,3.319 0,4.696 12.349,2.003 12.349,9.797 0,3.006 -2.064,6.136 -7.691,6.136 -3.596,-10e-4 -6.284,-1.378 -8.003,-3.319" /></g><g
       id="g25"><path
         style="fill:#ffffff"
         id="path27"
         d="m 172.8,126 0,-50.4 17.227,0 c 15.717,0 25.843,10.956 25.843,25.238 0,14.356 -10.126,25.162 -25.843,25.162 l -17.227,0 z m 36.568,-25.162 c 0,-10.881 -6.874,-19.646 -19.341,-19.646 l -10.955,0 0,39.215 10.955,0 c 12.237,0 19.341,-8.764 19.341,-19.569" /><polygon
         style="fill:#ffffff"
         id="polygon29"
         points="258.709,81.192 231.96,81.192 231.96,97.437 258.18,97.437 258.18,103.028 231.96,103.028 231.96,120.407 258.709,120.407 258.709,126 225.688,126 225.688,75.6 258.709,75.6 " /><path
         style="fill:#ffffff"
         id="path31"
         d="m 266.234,118.258 3.65,-4.675 c 3.142,3.652 8.401,7.012 15.267,7.012 8.691,0 11.47,-4.672 11.47,-8.474 0,-12.563 -28.854,-5.55 -28.854,-22.936 0,-8.034 7.158,-13.586 16.802,-13.586 7.374,0 13.148,2.557 17.235,6.866 l -3.65,4.455 c -3.654,-4.09 -8.765,-5.843 -14.097,-5.843 -5.771,0 -10.01,3.141 -10.01,7.742 0,10.957 28.854,4.675 28.854,22.863 0,7.012 -4.82,14.316 -17.969,14.316 -8.4,0.002 -14.68,-3.213 -18.698,-7.74" /><polygon
         style="fill:#ffffff"
         id="polygon33"
         points="319.229,126 312.957,126 312.957,75.6 319.229,75.6 319.229,101.593 341.518,75.6 349.374,75.6 328.372,99.478 351.262,126 343.408,126 324.288,103.33 319.229,109.075 " /><polygon
         style="fill:#ffffff"
         id="polygon35"
         points="354.89,75.6 393.125,75.6 393.125,81.192 377.103,81.192 377.103,126 370.833,126 370.833,81.192 354.89,81.192 " /><path
         style="fill:#ffffff"
         id="path37"
         d="m 393.543,100.8 c 0,-14.39 9.786,-25.2 24.177,-25.2 14.391,0 24.254,10.811 24.254,25.2 0,14.391 -9.863,25.2 -24.254,25.2 -14.391,0 -24.177,-10.81 -24.177,-25.2 m 42.147,0 c 0,-11.395 -7.086,-19.796 -17.971,-19.796 -10.955,0 -17.896,8.401 -17.896,19.796 0,11.321 6.94,19.795 17.896,19.795 10.885,0 17.971,-8.474 17.971,-19.795" /><path
         style="fill:#ffffff"
         id="path39"
         d="m 450.794,126 0,-50.4 20.246,0 c 10.126,0 15.798,6.952 15.798,15.188 0,8.235 -5.747,15.187 -15.798,15.187 l -13.978,0 0,20.025 -6.268,0 z m 29.543,-35.212 c 0,-5.668 -4.081,-9.596 -10.05,-9.596 l -13.225,0 0,19.194 13.225,0 c 5.969,0.001 10.05,-3.932 10.05,-9.598" /></g><g
       id="g41"><g
         id="g43"><polygon
           style="fill:#f68e51"
           id="polygon45"
           points="101,18.1 101,84 28.801,84 " /><polygon
           style="fill:#2a738e"
           id="polygon47"
           points="143.801,84 108,84 108,47.1 " /></g><g
         id="g49"><polygon
           style="fill:#bcd74b"
           id="polygon51"
           points="72,154.7 72,91 144,91 " /><polygon
           style="fill:#01a78d"
           id="polygon53"
           points="65,126.101 28.801,91 65,91 " /></g></g></g></svg>