<?xml version="1.0" encoding="UTF-8" standalone="no"?>
<svg
   xmlns:dc="http://purl.org/dc/elements/1.1/"
   xmlns:cc="http://creativecommons.org/ns#"
   xmlns:rdf="http://www.w3.org/1999/02/22-rdf-syntax-ns#"
   xmlns:svg="http://www.w3.org/2000/svg"
   xmlns="http://www.w3.org/2000/svg"
   xml:space="preserve"
   enable-background="new 0 0 583.2 172.8"
   viewBox="0 0 525.40398 136.8"
   height="136.8"
   width="525.40399"
   y="0px"
   x="0px"
   id="Layer_1"
   version="1.1"><metadata
     id="metadata67"><rdf:RDF><cc:Work
         rdf:about=""><dc:format>image/svg+xml</dc:format><dc:type
           rdf:resource="http://purl.org/dc/dcmitype/StillImage" /><dc:title></dc:title></cc:Work></rdf:RDF></metadata><defs
     id="defs65" /><g
     transform="translate(-28.8,-18)"
     id="g3"><g
       id="g5"><polygon
         style="fill:#ffffff"
         id="polygon7"
         points="205.697,81.191 179.209,81.191 179.209,97.437 205.173,97.437 205.173,103.028 179.209,103.028 179.209,120.407 205.697,120.407 205.697,125.999 172.999,125.999 172.999,75.6 205.697,75.6 " /><polygon
         style="fill:#ffffff"
         id="polygon9"
         points="210.632,125.999 230.086,100.157 211.754,75.6 219.312,75.6 234.126,95.698 248.866,75.6 256.499,75.6 238.167,100.081 257.621,125.999 250.063,125.999 234.126,104.539 218.189,125.999 " /><path
         style="fill:#ffffff"
         id="path11"
         d="m 260.09,100.8 c 0,-14.974 11.299,-25.2 25.665,-25.2 8.829,0 14.964,4.091 18.93,9.642 l -5.162,2.849 c -2.844,-4.163 -8.081,-7.085 -13.768,-7.085 -10.928,0 -19.23,8.104 -19.23,19.795 0,11.54 8.303,19.794 19.23,19.794 5.687,0 10.924,-2.994 13.768,-7.085 l 5.237,2.776 C 300.57,121.91 294.584,126 285.755,126 271.389,125.999 260.09,115.773 260.09,100.8" /><polygon
         style="fill:#ffffff"
         id="polygon13"
         points="318.897,125.999 312.688,125.999 312.688,75.6 318.897,75.6 318.897,97.285 348.079,97.285 348.079,75.6 354.289,75.6 354.289,125.999 348.079,125.999 348.079,102.877 318.897,102.877 " /><path
         style="fill:#ffffff"
         id="path15"
         d="m 401.574,125.507 -4.414,-11.148 -24.842,0 -4.415,11.148 -7.107,0 20.127,-49.907 7.707,0 20.053,49.907 -7.109,0 z m -16.835,-43.548 -10.551,26.937 21.176,0 -10.625,-26.937 z" /><polygon
         style="fill:#ffffff"
         id="polygon17"
         points="415.188,125.999 415.188,75.6 421.549,75.6 450.277,114.967 450.277,75.6 456.487,75.6 456.487,125.999 450.502,125.999 421.399,85.8 421.399,125.999 " /><path
         style="fill:#ffffff"
         id="path19"
         d="m 466.14,100.764 c 0,-15.171 11.448,-25.164 25.665,-25.164 8.903,0 15.039,3.793 19.379,9.045 l -4.938,3.063 c -3.143,-3.939 -8.455,-6.711 -14.44,-6.711 -10.925,0 -19.229,8.093 -19.229,19.767 0,11.523 8.305,19.766 19.229,19.766 5.985,0 10.924,-2.771 13.468,-5.251 l 0,-9.848 -17.209,0 0,-5.397 23.345,0 0,17.506 c -4.64,5.105 -11.45,8.46 -19.605,8.46 -14.217,0 -25.665,-10.139 -25.665,-25.236" /><polygon
         style="fill:#ffffff"
         id="polygon21"
         points="554.204,81.191 527.716,81.191 527.716,97.437 553.68,97.437 553.68,103.028 527.716,103.028 527.716,120.407 554.204,120.407 554.204,125.999 521.506,125.999 521.506,75.6 554.204,75.6 " /></g><g
       id="g23"><path
         style="fill:#ffffff"
         id="path25"
         d="m 172.8,68.4 0,-21.6 9.284,0 c 3.626,0 5.846,2.266 5.846,5.504 0,2.721 -1.75,4.534 -3.657,4.956 2.219,0.355 4.064,2.721 4.064,5.311 0,3.466 -2.22,5.83 -6.034,5.83 l -9.503,0 z m 12.442,-15.708 c 0,-1.942 -1.252,-3.497 -3.596,-3.497 l -6.251,0 0,6.962 6.251,0 c 2.344,0.001 3.596,-1.488 3.596,-3.465 m 0.405,9.587 c 0,-1.975 -1.313,-3.724 -3.844,-3.724 l -6.408,0 0,7.449 6.408,0 c 2.406,0 3.844,-1.427 3.844,-3.725" /><path
         style="fill:#ffffff"
         id="path27"
         d="m 191.621,57.599 c 0,-6.166 4.188,-10.799 10.348,-10.799 6.158,0 10.378,4.633 10.378,10.799 0,6.168 -4.22,10.801 -10.378,10.801 -6.159,0 -10.348,-4.633 -10.348,-10.801 m 18.037,0 c 0,-4.883 -3.031,-8.482 -7.689,-8.482 -4.688,0 -7.659,3.6 -7.659,8.482 0,4.853 2.971,8.484 7.659,8.484 4.658,0 7.689,-3.631 7.689,-8.484" /><path
         style="fill:#ffffff"
         id="path29"
         d="m 216.383,59.779 0,-12.979 2.626,0 0,12.916 c 0,3.88 2.032,6.331 5.876,6.331 3.844,0 5.909,-2.45 5.909,-6.331 l 0,-12.916 2.625,0 0,12.948 c 0,5.279 -2.874,8.652 -8.534,8.652 -5.627,0 -8.502,-3.404 -8.502,-8.621" /><polygon
         style="fill:#ffffff"
         id="polygon31"
         points="238.298,68.4 238.298,46.8 240.956,46.8 252.962,63.672 252.962,46.8 255.557,46.8 255.557,68.4 253.056,68.4 240.896,51.17 240.896,68.4 " /><path
         style="fill:#ffffff"
         id="path33"
         d="m 260.437,68.4 0,-21.6 7.128,0 c 6.501,0 10.689,4.695 10.689,10.815 0,6.153 -4.188,10.785 -10.689,10.785 l -7.128,0 z m 15.128,-10.785 c 0,-4.663 -2.845,-8.419 -8.001,-8.419 l -4.534,0 0,16.808 4.534,0 c 5.064,0 8.001,-3.757 8.001,-8.389" /><polygon
         style="fill:#ffffff"
         id="polygon35"
         points="284.572,66.002 294.265,66.002 294.265,68.4 281.979,68.4 281.979,46.8 284.572,46.8 " /><polygon
         style="fill:#ffffff"
         id="polygon37"
         points="311.396,49.195 300.331,49.195 300.331,56.158 311.178,56.158 311.178,58.555 300.331,58.555 300.331,66.002 311.396,66.002 311.396,68.4 297.736,68.4 297.736,46.8 311.396,46.8 " /><path
         style="fill:#ffffff"
         id="path39"
         d="m 314.275,65.081 1.563,-2.002 c 1.344,1.564 3.595,3.004 6.534,3.004 3.718,0 4.906,-2.004 4.906,-3.632 0,-5.384 -12.346,-2.38 -12.346,-9.83 0,-3.441 3.064,-5.822 7.188,-5.822 3.158,0 5.627,1.096 7.378,2.942 l -1.563,1.912 c -1.563,-1.753 -3.751,-2.505 -6.032,-2.505 -2.471,0 -4.283,1.347 -4.283,3.319 0,4.696 12.348,2.003 12.348,9.797 0,3.006 -2.063,6.136 -7.691,6.136 -3.594,0 -6.283,-1.377 -8.002,-3.319" /><path
         style="fill:#ffffff"
         id="path41"
         d="m 332.597,65.081 1.563,-2.002 c 1.344,1.564 3.595,3.004 6.534,3.004 3.719,0 4.906,-2.004 4.906,-3.632 0,-5.384 -12.346,-2.38 -12.346,-9.83 0,-3.441 3.063,-5.822 7.188,-5.822 3.157,0 5.627,1.096 7.379,2.942 l -1.563,1.912 c -1.563,-1.753 -3.751,-2.505 -6.032,-2.505 -2.471,0 -4.284,1.347 -4.284,3.319 0,4.696 12.349,2.003 12.349,9.797 0,3.006 -2.064,6.136 -7.691,6.136 -3.596,0 -6.284,-1.377 -8.003,-3.319" /></g><g
       id="g43"><path
         style="fill:#333332"
         id="path45"
         d="m 86.42,103.521 c -0.011,0.008 -0.021,0.018 -0.028,0.034 0.006,-0.016 0.017,-0.026 0.028,-0.034" /><path
         style="fill:#333332"
         id="path47"
         d="m 86.384,103.521 c 0.014,0.011 0.024,0.034 0.036,0.041 -0.011,-0.006 -0.022,-0.03 -0.036,-0.041" /><path
         style="fill:#333332"
         id="path49"
         d="m 86.392,103.532 c 0.007,0.011 0.017,0.023 0.021,0.03 -0.004,-0.006 -0.015,-0.019 -0.021,-0.03" /><path
         style="fill:#333332"
         id="path51"
         d="m 86.42,103.521 c -0.011,0.008 -0.021,0.018 -0.028,0.034 0.006,-0.016 0.017,-0.026 0.028,-0.034" /><path
         style="fill:#01a78d"
         id="path53"
         d="m 79.032,31.897 0,-13.784 C 50.701,21.686 28.8,45.543 28.8,74.453 c 0,10.748 3.039,20.785 8.299,29.355 l 10.15,-10.021 c -3.025,-5.935 -4.618,-12.51 -4.618,-19.335 0,-21.33 15.76,-39.091 36.401,-42.555" /><path
         style="fill:#f68e51"
         id="path55"
         d="m 92.855,18 0,13.745 c 21.093,3.084 37.325,21.066 37.325,42.708 0,6.829 -1.607,13.413 -4.622,19.342 l 10.147,10.014 C 140.961,95.247 144,85.197 144,74.453 144,45.226 121.626,21.162 92.855,18" /><path
         style="fill:#bcd74b"
         id="path57"
         d="M 117.278,105.062 86.403,135.516 55.545,105.079 c -0.036,-0.035 -0.063,-0.057 -0.095,-0.096 l -9.776,9.646 40.728,40.171 40.725,-40.171 -9.777,-9.646 c -0.027,0.027 -0.052,0.059 -0.072,0.079" /><path
         style="fill:#2a738e"
         id="path59"
         d="m 86.402,44.908 c -16.513,0 -29.951,13.257 -29.951,29.545 0,7.92 3.136,15.359 8.869,20.979 l 21.082,20.807 21.123,-20.844 c 5.691,-5.59 8.827,-13.022 8.827,-20.942 10e-4,-16.288 -13.437,-29.545 -29.95,-29.545 m 0,48.395 c -10.543,0 -19.11,-8.431 -19.11,-18.85 0,-10.403 8.567,-18.852 19.11,-18.852 10.556,0 19.121,8.449 19.121,18.852 0,10.419 -8.565,18.85 -19.121,18.85" /><path
         style="fill:none;stroke:#2a728c;stroke-width:1.92900002;stroke-miterlimit:10"
         id="path61"
         d="m 86.402,44.908 c -16.513,0 -29.951,13.257 -29.951,29.545 0,7.92 3.136,15.359 8.869,20.979 l 21.082,20.807 21.123,-20.844 c 5.691,-5.59 8.827,-13.022 8.827,-20.942 10e-4,-16.288 -13.437,-29.545 -29.95,-29.545 z m 0,48.395 c -10.543,0 -19.11,-8.431 -19.11,-18.85 0,-10.403 8.567,-18.852 19.11,-18.852 10.556,0 19.121,8.449 19.121,18.852 0,10.419 -8.565,18.85 -19.121,18.85 z"
         stroke-miterlimit="10" /></g></g></svg>