<?xml version="1.0" encoding="UTF-8" standalone="no"?>
<svg
   xmlns:dc="http://purl.org/dc/elements/1.1/"
   xmlns:cc="http://creativecommons.org/ns#"
   xmlns:rdf="http://www.w3.org/1999/02/22-rdf-syntax-ns#"
   xmlns:svg="http://www.w3.org/2000/svg"
   xmlns="http://www.w3.org/2000/svg"
   xml:space="preserve"
   enable-background="new 0 0 396 172.8"
   viewBox="0 0 329.77582 115.50619"
   height="115.50619"
   width="329.77582"
   y="0px"
   x="0px"
   id="Layer_1"
   version="1.1"><metadata
     id="metadata48"><rdf:RDF><cc:Work
         rdf:about=""><dc:format>image/svg+xml</dc:format><dc:type
           rdf:resource="http://purl.org/dc/dcmitype/StillImage" /><dc:title></dc:title></cc:Work></rdf:RDF></metadata><defs
     id="defs46" /><g
     transform="translate(-28.800179,-28.647234)"
     id="g4176"><g
       id="g3"><path
         style="fill:#ffffff"
         d="m 172.8,72 0,-21.6 9.284,0 c 3.626,0 5.846,2.266 5.846,5.504 0,2.721 -1.75,4.535 -3.657,4.956 2.219,0.355 4.064,2.721 4.064,5.312 0,3.466 -2.22,5.829 -6.034,5.829 l -9.503,0 z m 12.442,-15.708 c 0,-1.942 -1.252,-3.497 -3.596,-3.497 l -6.251,0 0,6.962 6.251,0 c 2.344,0 3.596,-1.488 3.596,-3.465 m 0.405,9.586 c 0,-1.976 -1.313,-3.725 -3.844,-3.725 l -6.408,0 0,7.45 6.408,0 c 2.406,0.001 3.844,-1.426 3.844,-3.725"
         id="path5" /><path
         style="fill:#ffffff"
         d="m 191.621,61.199 c 0,-6.166 4.188,-10.799 10.348,-10.799 6.158,0 10.378,4.633 10.378,10.799 0,6.168 -4.22,10.801 -10.378,10.801 -6.159,0 -10.348,-4.633 -10.348,-10.801 m 18.037,0 c 0,-4.883 -3.031,-8.482 -7.689,-8.482 -4.688,0 -7.659,3.6 -7.659,8.482 0,4.853 2.971,8.484 7.659,8.484 4.658,0 7.689,-3.632 7.689,-8.484"
         id="path7" /><path
         style="fill:#ffffff"
         d="m 216.383,63.378 0,-12.979 2.626,0 0,12.916 c 0,3.881 2.032,6.33 5.876,6.33 3.844,0 5.909,-2.449 5.909,-6.33 l 0,-12.916 2.625,0 0,12.948 c 0,5.279 -2.874,8.652 -8.534,8.652 -5.627,0.001 -8.502,-3.403 -8.502,-8.621"
         id="path9" /><polygon
         style="fill:#ffffff"
         points="238.298,72 238.298,50.399 240.956,50.399 252.962,67.272 252.962,50.399 255.557,50.399 255.557,72 253.056,72 240.896,54.77 240.896,72 "
         id="polygon11" /><path
         style="fill:#ffffff"
         d="m 260.437,72 0,-21.6 7.128,0 c 6.501,0 10.689,4.695 10.689,10.815 0,6.154 -4.188,10.785 -10.689,10.785 l -7.128,0 z m 15.128,-10.786 c 0,-4.662 -2.845,-8.418 -8.001,-8.418 l -4.534,0 0,16.808 4.534,0 c 5.064,0 8.001,-3.758 8.001,-8.39"
         id="path13" /><polygon
         style="fill:#ffffff"
         points="284.572,69.602 294.265,69.602 294.265,72 281.979,72 281.979,50.399 284.572,50.399 "
         id="polygon15" /><polygon
         style="fill:#ffffff"
         points="311.396,52.795 300.331,52.795 300.331,59.757 311.178,59.757 311.178,62.154 300.331,62.154 300.331,69.602 311.396,69.602 311.396,72 297.736,72 297.736,50.399 311.396,50.399 "
         id="polygon17" /><path
         style="fill:#ffffff"
         d="m 314.275,68.681 1.563,-2.003 c 1.344,1.563 3.595,3.005 6.534,3.005 3.718,0 4.906,-2.004 4.906,-3.633 0,-5.384 -12.346,-2.379 -12.346,-9.829 0,-3.441 3.064,-5.822 7.188,-5.822 3.158,0 5.627,1.096 7.378,2.942 l -1.563,1.912 c -1.563,-1.753 -3.751,-2.505 -6.032,-2.505 -2.471,0 -4.283,1.347 -4.283,3.319 0,4.696 12.348,2.003 12.348,9.797 0,3.006 -2.063,6.136 -7.691,6.136 -3.594,0 -6.283,-1.377 -8.002,-3.319"
         id="path19" /><path
         style="fill:#ffffff"
         d="m 332.597,68.681 1.563,-2.003 c 1.344,1.563 3.595,3.005 6.534,3.005 3.719,0 4.906,-2.004 4.906,-3.633 0,-5.384 -12.346,-2.379 -12.346,-9.829 0,-3.441 3.063,-5.822 7.188,-5.822 3.157,0 5.627,1.096 7.379,2.942 l -1.563,1.912 c -1.563,-1.753 -3.751,-2.505 -6.032,-2.505 -2.471,0 -4.284,1.347 -4.284,3.319 0,4.696 12.349,2.003 12.349,9.797 0,3.006 -2.064,6.136 -7.691,6.136 -3.596,0 -6.284,-1.377 -8.003,-3.319"
         id="path21" /></g><g
       id="g23"><path
         style="fill:#ffffff"
         d="m 170.64,121.857 3.652,-4.675 c 3.141,3.652 8.4,7.013 15.266,7.013 8.692,0 11.468,-4.672 11.468,-8.474 0,-12.563 -28.853,-5.551 -28.853,-22.936 0,-8.034 7.159,-13.586 16.8,-13.586 7.374,0 13.148,2.557 17.238,6.866 l -3.652,4.455 c -3.652,-4.09 -8.765,-5.843 -14.097,-5.843 -5.771,0 -10.007,3.141 -10.007,7.742 0,10.957 28.853,4.675 28.853,22.862 0,7.013 -4.821,14.317 -17.969,14.317 -8.4,0.003 -14.681,-3.211 -18.699,-7.741"
         id="path25" /><path
         style="fill:#ffffff"
         d="m 216.365,109.484 0,-30.284 6.136,0 0,30.136 c 0,9.056 4.748,14.771 13.732,14.771 8.984,0 13.806,-5.716 13.806,-14.771 l 0,-30.136 6.137,0 0,30.213 c 0,12.318 -6.722,20.188 -19.943,20.188 -13.148,0 -19.868,-7.944 -19.868,-20.117"
         id="path27" /><rect
         style="fill:#ffffff"
         x="267.56699"
         y="79.199997"
         width="6.0630002"
         height="50.400002"
         id="rect29" /><polygon
         style="fill:#ffffff"
         points="281.664,79.2 318.624,79.2 318.624,84.792 303.139,84.792 303.139,129.601 297.076,129.601 297.076,84.792 281.664,84.792 "
         id="polygon31" /><polygon
         style="fill:#ffffff"
         points="358.576,84.792 332.719,84.792 332.719,101.037 358.064,101.037 358.064,106.629 332.719,106.629 332.719,124.009 358.576,124.009 358.576,129.601 326.656,129.601 326.656,79.2 358.576,79.2 "
         id="polygon33" /></g><g
       id="icon"><path
         style="fill:#2a728d"
         d="M 65.4,37.364 61.704,41.06 C 51.298,51.464 50.462,67.862 58.517,79.258 L 82.906,54.87 C 94.507,43.269 113.238,43.237 124.84,54.839 L 107.335,37.332 C 95.732,25.732 77.002,25.762 65.4,37.364 Z"
         id="path36" /><path
         style="fill:#bbd44a"
         d="m 37.758,107.807 3.697,3.696 c 10.405,10.406 26.801,11.241 38.198,3.187 L 55.264,90.301 C 43.663,78.7 43.159,59.604 54.762,48.002 L 37.255,65.509 c -11.602,11.6 -11.101,30.695 0.503,42.298 z"
         id="path38" /><path
         style="fill:#f68e50"
         d="m 107.415,135.4 3.696,-3.697 c 10.406,-10.405 11.241,-26.803 3.186,-38.198 l -24.39,24.388 c -11.601,11.603 -30.358,11.706 -41.96,0.104 l 17.506,17.508 c 11.603,11.599 30.36,11.498 41.962,-0.105 z"
         id="path40" /><path
         style="fill:#00a78d"
         d="m 135.029,65.028 -3.696,-3.696 C 120.927,50.925 104.532,50.091 93.134,58.146 l 24.39,24.389 c 11.602,11.603 12.131,30.624 0.529,42.227 l 17.507,-17.507 c 11.6,-11.602 11.072,-30.623 -0.531,-42.227 z"
         id="path42" /></g></g></svg>